<svg xmlns="http://www.w3.org/2000/svg" width="16" height="16" viewBox="0 0 16 16" fill="none">
<path d="M7.99991 0C10.2092 0 12.2093 0.895563 13.6568 2.343C15.1051 3.79044 15.9998 5.79066 15.9998 7.99991C15.9998 10.2092 15.1051 12.2094 13.6568 13.6568C12.2093 15.1043 10.2092 15.9998 7.99991 15.9998C5.79066 15.9998 3.79134 15.1043 2.343 13.6568C0.895563 12.2094 0 10.2092 0 7.99991C0 5.79066 0.895563 3.79047 2.34303 2.343C3.79134 0.895594 5.79066 0 7.99991 0Z" fill="#FFB703"/>
<path d="M7.99609 1.57422C9.77041 1.57422 11.3773 2.2935 12.5404 3.45659C13.7026 4.61881 14.4219 6.22569 14.4219 8C14.4219 9.77431 13.7026 11.3812 12.5404 12.5434C11.3773 13.7065 9.77041 14.4258 7.99609 14.4258C6.22178 14.4258 4.61578 13.7065 3.45269 12.5434C2.28959 11.3812 1.57031 9.77431 1.57031 8C1.57031 6.22569 2.28959 4.61881 3.45269 3.45659C4.61578 2.2935 6.22178 1.57422 7.99609 1.57422Z" fill="#FCD227"/>
<path fill-rule="evenodd" clip-rule="evenodd" d="M8 1.57412C9.77431 1.57412 11.3812 2.29341 12.5443 3.4565L13.6569 2.34303C12.2094 0.895594 10.2093 0 8 0V1.57412Z" fill="#FFB703"/>
<path fill-rule="evenodd" clip-rule="evenodd" d="M12.5469 3.45627C13.7091 4.61849 14.4284 6.22537 14.4284 7.99968H16.0025C16.0025 5.79043 15.1078 3.79024 13.6595 2.34277L12.5469 3.45627Z" fill="#FF9831"/>
<path fill-rule="evenodd" clip-rule="evenodd" d="M14.4284 8.00003C14.4284 9.77434 13.7091 11.3813 12.5469 12.5434L13.6595 13.6569C15.1078 12.2095 16.0025 10.2093 16.0025 8H14.4284V8.00003Z" fill="#FFB703"/>
<path fill-rule="evenodd" clip-rule="evenodd" d="M12.5443 12.543C11.3812 13.7061 9.77431 14.4253 8 14.4253V15.9994C10.2093 15.9994 12.2094 15.1039 13.6569 13.6564L12.5443 12.543Z" fill="#FF9831"/>
<path fill-rule="evenodd" clip-rule="evenodd" d="M8.00062 14.4253C6.22631 14.4253 4.62031 13.706 3.45722 12.543L2.34375 13.6565C3.79206 15.1039 5.79137 15.9995 8.00066 15.9995V14.4253H8.00062Z" fill="#FFB703"/>
<path fill-rule="evenodd" clip-rule="evenodd" d="M3.4565 12.5434C2.29341 11.3812 1.57412 9.77431 1.57412 8H0C0 10.2093 0.895563 12.2095 2.34303 13.6569L3.4565 12.5434Z" fill="#FF9831"/>
<path fill-rule="evenodd" clip-rule="evenodd" d="M1.57412 7.99968C1.57412 6.22537 2.29341 4.61849 3.4565 3.45627L2.34303 2.34277C0.895563 3.79024 0 5.79043 0 7.99968H1.57412Z" fill="#FFB703"/>
<path fill-rule="evenodd" clip-rule="evenodd" d="M3.45725 3.4565C4.62034 2.29341 6.22634 1.57412 8.00066 1.57412V0C5.79141 0 3.79209 0.895562 2.34375 2.343L3.45725 3.4565Z" fill="#FF9831"/>
<path d="M8.75419 4.50144L9.26975 6.09947C9.29013 6.16147 9.32735 6.21284 9.37607 6.24828C9.42566 6.28372 9.48591 6.30409 9.55235 6.30409L11.231 6.30053C11.433 6.30053 11.6048 6.36875 11.7377 6.47859C11.8555 6.57691 11.9405 6.70712 11.9875 6.84887C12.0336 6.99237 12.0407 7.14741 12.0034 7.29531C11.9609 7.46275 11.8617 7.62041 11.6978 7.73822L10.3381 8.72237C10.284 8.76134 10.2468 8.81359 10.2282 8.87031C10.2096 8.927 10.2096 8.99078 10.23 9.05456L10.7518 10.6499C10.8147 10.8404 10.8023 11.0255 10.7376 11.1859C10.6809 11.3294 10.5835 11.4516 10.463 11.5384C10.3425 11.6261 10.1964 11.6819 10.0431 11.6917C9.87129 11.7023 9.69235 11.6572 9.52935 11.5384L8.17316 10.549C8.12 10.51 8.05888 10.4914 7.99776 10.4914C7.93663 10.4914 7.8755 10.51 7.82325 10.549L6.46707 11.5384C6.30407 11.6571 6.12425 11.7023 5.95329 11.6917C5.79916 11.6819 5.65388 11.6261 5.53341 11.5384C5.41204 11.4516 5.3155 11.3294 5.25791 11.1859C5.19413 11.0255 5.18172 10.8404 5.24375 10.6499L5.76551 9.05456C5.78676 8.99078 5.78588 8.927 5.76729 8.87031C5.74957 8.81363 5.71147 8.76134 5.65832 8.72237L4.29769 7.73822C4.13382 7.62041 4.0355 7.46275 3.99297 7.29531C3.95488 7.14741 3.96285 6.99237 4.00891 6.84887C4.05497 6.70712 4.14091 6.57691 4.25872 6.47859C4.39069 6.36875 4.56257 6.30053 4.76541 6.30053L6.44407 6.30409C6.50963 6.30409 6.57072 6.28372 6.61947 6.24828C6.66819 6.21284 6.70629 6.16147 6.72666 6.09947L7.24222 4.50144C7.30422 4.31009 7.42294 4.16837 7.56822 4.07625C7.69844 3.99387 7.84904 3.95312 7.99785 3.95312C8.14666 3.95312 8.29725 3.99387 8.42747 4.07625C8.57347 4.16837 8.69219 4.31009 8.75419 4.50144Z" fill="#FB8500"/>
</svg>